<svg id="svg" version="1.1" xmlns="http://www.w3.org/2000/svg" xmlns:xlink="http://www.w3.org/1999/xlink" width="400" height="400" viewBox="0, 0, 400,400"><g id="svgg"><path id="path0" d="M184.667 84.152 C 171.635 89.798,112.523 115.296,70.833 133.253 C 62.950 136.648,56.163 139.580,55.750 139.767 L 55.000 140.107 55.000 202.514 L 55.000 264.921 59.250 266.757 C 61.587 267.766,74.300 273.241,87.500 278.924 C 100.700 284.606,124.700 294.949,140.833 301.909 C 156.967 308.868,176.893 317.459,185.114 320.999 L 200.061 327.436 212.281 322.175 C 219.001 319.281,238.000 311.093,254.500 303.978 C 271.000 296.863,298.075 285.195,314.667 278.049 L 344.833 265.056 344.833 202.498 L 344.833 139.941 298.833 120.120 C 273.533 109.219,241.010 95.207,226.559 88.983 C 212.108 82.759,200.108 77.680,199.892 77.696 C 199.676 77.711,192.825 80.617,184.667 84.152 M227.428 94.668 C 242.317 101.085,273.775 114.632,297.333 124.771 L 340.167 143.207 340.167 202.500 L 340.167 261.793 297.333 280.229 C 273.775 290.369,242.328 303.915,227.450 310.332 C 212.573 316.750,200.242 322.000,200.048 322.000 C 199.854 322.000,192.377 318.838,183.431 314.973 C 145.392 298.537,84.227 272.184,72.583 267.214 L 60.000 261.843 60.000 202.498 L 60.000 143.152 72.583 137.783 C 84.564 132.672,153.073 103.144,184.667 89.475 C 192.825 85.945,199.692 83.044,199.928 83.029 C 200.163 83.013,212.538 88.251,227.428 94.668 M172.592 135.531 C 166.681 137.349,165.965 146.139,171.496 148.982 C 173.538 150.031,176.548 150.128,178.298 149.200 L 179.430 148.599 184.909 154.078 L 190.388 159.557 189.389 161.133 C 187.386 164.291,187.098 169.349,188.733 172.653 L 189.569 174.341 184.796 178.168 L 180.023 181.996 178.824 181.182 C 172.774 177.076,165.208 184.269,168.541 190.957 C 172.570 199.042,185.354 193.207,181.871 184.873 L 181.409 183.767 185.593 180.467 C 191.544 175.772,190.933 176.032,192.754 177.422 C 195.585 179.583,199.004 180.288,203.068 179.548 L 204.635 179.262 206.389 182.788 L 208.143 186.315 207.276 187.241 C 202.689 192.142,205.875 199.803,212.500 199.803 C 216.788 199.803,219.805 196.787,219.805 192.500 C 219.805 188.116,216.786 185.181,212.294 185.196 L 210.087 185.203 208.357 181.724 L 206.626 178.244 208.275 176.705 C 209.197 175.845,210.374 174.268,210.945 173.128 L 211.965 171.089 214.725 171.640 L 217.486 172.192 217.727 173.606 C 219.248 182.516,232.365 181.538,232.326 172.518 C 232.293 164.886,221.976 162.278,218.490 169.020 L 218.023 169.923 215.761 169.453 C 212.219 168.717,212.440 168.910,212.261 166.407 C 212.006 162.840,210.173 159.671,207.064 157.418 L 205.758 156.472 207.103 153.065 C 208.266 150.116,208.533 149.685,209.090 149.862 C 215.963 152.043,220.296 140.462,214.133 136.380 C 206.635 131.414,198.404 141.927,205.043 147.990 L 206.112 148.967 204.812 152.304 C 203.567 155.498,203.476 155.631,202.672 155.409 C 199.830 154.627,194.017 155.872,192.613 157.565 C 192.284 157.961,191.263 157.090,186.644 152.477 L 181.072 146.912 181.695 145.540 C 184.379 139.629,178.890 133.594,172.592 135.531 M45.000 202.500 L 45.000 265.000 47.500 265.000 L 50.000 265.000 50.000 202.500 L 50.000 140.000 47.500 140.000 L 45.000 140.000 45.000 202.500 M350.000 202.500 L 350.000 265.000 352.500 265.000 L 355.000 265.000 355.000 202.500 L 355.000 140.000 352.500 140.000 L 350.000 140.000 350.000 202.500 M138.833 221.623 C 128.195 224.413,127.067 243.555,137.325 247.234 C 138.428 247.629,139.269 248.301,140.453 249.732 C 143.498 253.413,148.534 254.149,150.922 251.262 C 152.104 249.834,150.880 249.395,148.801 250.500 C 146.374 251.791,145.266 251.635,143.259 249.720 L 141.568 248.106 143.600 247.706 C 154.177 245.625,155.657 226.780,145.592 222.338 C 143.866 221.577,140.406 221.211,138.833 221.623 M144.917 223.958 C 152.846 228.003,151.989 243.477,143.703 245.886 C 135.343 248.316,129.181 237.841,133.465 228.483 C 135.606 223.806,140.686 221.799,144.917 223.958 M196.765 230.211 C 188.515 232.743,188.744 245.157,197.085 247.497 C 205.148 249.760,211.661 242.418,208.359 234.789 C 206.617 230.766,201.518 228.753,196.765 230.211 M224.701 230.390 C 224.077 230.817,223.310 231.653,222.994 232.247 L 222.420 233.327 222.236 231.957 C 221.983 230.065,221.763 229.939,219.481 230.377 C 216.181 231.011,215.497 232.619,218.709 232.192 L 220.333 231.977 220.333 238.989 L 220.333 246.000 218.853 246.000 C 217.246 246.000,216.712 246.418,217.345 247.181 C 218.381 248.429,225.963 247.622,225.176 246.348 C 225.057 246.157,224.370 246.000,223.647 246.000 L 222.333 246.000 222.333 240.719 C 222.333 234.752,222.812 233.134,224.948 231.886 C 227.902 230.161,228.667 231.916,228.667 240.426 C 228.667 247.970,228.572 247.749,231.721 247.600 C 234.655 247.461,235.236 246.000,232.357 246.000 L 230.667 246.000 230.667 240.719 C 230.667 234.568,231.129 233.104,233.451 231.899 C 236.428 230.354,237.000 231.711,237.000 240.314 C 237.000 247.984,236.902 247.749,240.054 247.600 C 242.863 247.467,243.286 246.239,240.583 246.065 L 239.000 245.963 238.998 240.065 C 238.996 233.602,238.758 232.182,237.458 230.883 C 235.658 229.082,232.594 229.673,231.162 232.098 C 230.598 233.053,230.524 233.085,230.192 232.511 C 228.656 229.854,226.625 229.069,224.701 230.390 M256.395 230.187 C 247.167 232.671,247.537 245.267,256.906 247.579 C 260.410 248.444,265.537 247.192,266.879 245.143 C 267.964 243.488,266.720 243.225,264.491 244.638 C 259.709 247.671,253.786 246.257,252.178 241.699 C 251.163 238.822,250.714 239.000,258.992 239.000 L 266.318 239.000 266.856 238.179 C 267.313 237.482,267.337 237.092,267.016 235.596 C 266.004 230.875,261.798 228.733,256.395 230.187 M161.833 230.448 C 158.743 231.162,158.385 232.578,161.384 232.223 L 163.000 232.031 163.002 237.432 C 163.004 243.683,163.256 244.904,164.832 246.288 C 167.528 248.654,172.087 248.425,175.020 245.776 L 176.333 244.589 176.333 245.728 C 176.333 247.400,176.787 247.677,179.139 247.443 C 183.006 247.059,183.811 245.667,180.167 245.667 L 178.000 245.667 178.000 237.833 C 178.000 228.933,178.336 229.718,174.833 230.444 C 171.986 231.034,171.534 232.560,174.304 232.232 L 176.000 232.031 176.000 237.470 L 176.000 242.909 175.083 243.837 C 172.450 246.502,168.009 246.970,165.966 244.798 C 165.189 243.971,165.162 243.760,165.000 237.057 C 164.811 229.227,165.041 229.707,161.833 230.448 M202.107 231.691 C 208.606 233.495,208.479 244.255,201.939 246.016 C 197.178 247.298,193.000 243.941,193.000 238.833 C 193.000 233.597,197.176 230.322,202.107 231.691 M263.000 232.271 C 263.977 232.976,265.333 235.476,265.333 236.571 L 265.333 237.333 258.523 237.333 L 251.713 237.333 251.987 236.380 C 253.181 232.217,259.606 229.819,263.000 232.271 " stroke="none" fill="#f3e3db" fill-rule="evenodd"></path><path id="path1" d="M340.163 202.500 C 340.163 235.133,340.202 248.434,340.250 232.057 C 340.298 215.680,340.298 188.980,340.250 172.724 C 340.202 156.467,340.163 169.867,340.163 202.500 M152.411 234.667 C 152.411 235.308,152.479 235.571,152.563 235.250 C 152.647 234.929,152.647 234.404,152.563 234.083 C 152.479 233.762,152.411 234.025,152.411 234.667 " stroke="none" fill="#acccbc" fill-rule="evenodd"></path><path id="path2" d="M0.000 200.000 L 0.000 400.000 200.000 400.000 L 400.000 400.000 400.000 200.000 L 400.000 0.000 200.000 0.000 L 0.000 0.000 0.000 200.000 M232.833 91.512 C 250.617 99.173,283.167 113.195,305.167 122.672 L 345.167 139.902 345.167 202.498 L 345.167 265.094 298.833 285.059 C 273.350 296.040,240.700 310.106,226.277 316.318 L 200.054 327.612 185.110 321.172 C 176.891 317.630,154.642 308.037,135.667 299.853 C 116.692 291.670,90.782 280.517,78.090 275.070 L 55.013 265.167 55.015 202.500 L 55.017 139.833 68.925 133.872 C 87.560 125.886,166.439 91.880,185.000 83.832 C 193.158 80.294,199.983 77.441,200.167 77.491 C 200.350 77.541,215.050 83.851,232.833 91.512 M184.500 89.718 C 165.845 97.810,90.345 130.355,72.833 137.854 L 60.167 143.278 60.167 202.500 L 60.167 261.722 72.833 267.146 C 87.091 273.252,152.300 301.345,181.107 313.792 L 200.048 321.976 226.274 310.663 C 240.698 304.440,272.150 290.891,296.167 280.554 L 339.833 261.758 339.833 202.497 L 339.833 143.235 333.833 140.658 C 321.223 135.241,252.013 105.440,226.998 94.656 C 212.606 88.452,200.606 83.306,200.332 83.221 C 200.058 83.137,192.933 86.060,184.500 89.718 M177.927 135.518 C 181.762 137.119,183.652 142.080,181.844 145.796 L 181.214 147.092 186.598 152.378 L 191.982 157.664 194.241 156.415 C 196.428 155.207,196.612 155.166,199.991 155.131 L 203.481 155.096 204.705 152.076 L 205.929 149.057 204.934 148.112 C 198.850 142.333,205.219 132.298,212.927 135.518 C 220.385 138.633,218.140 150.000,210.067 150.000 L 208.446 150.000 207.175 153.210 C 205.993 156.196,205.946 156.443,206.498 156.752 C 209.749 158.571,212.667 163.677,212.667 167.546 C 212.667 168.576,212.740 168.635,214.457 168.991 C 217.682 169.661,217.789 169.637,219.035 168.000 C 223.433 162.220,232.447 165.244,232.447 172.500 C 232.447 181.788,219.213 182.747,217.494 173.584 C 217.274 172.415,217.190 172.351,215.383 171.989 C 214.347 171.781,213.174 171.535,212.775 171.442 C 212.164 171.300,211.904 171.571,211.123 173.166 C 210.588 174.259,209.471 175.721,208.478 176.628 L 206.760 178.199 208.479 181.624 L 210.197 185.049 212.515 185.108 C 222.426 185.360,222.455 199.981,212.545 199.997 C 205.795 200.008,202.419 191.884,207.190 187.113 L 207.987 186.316 206.244 182.808 C 204.735 179.773,204.410 179.329,203.833 179.512 C 200.297 180.636,195.498 179.771,192.479 177.466 L 190.980 176.323 186.740 179.711 C 184.408 181.574,182.317 183.265,182.094 183.467 C 181.776 183.756,181.801 184.161,182.208 185.335 C 185.182 193.908,172.468 198.914,168.242 190.833 C 164.936 184.513,172.066 177.559,178.508 180.821 C 179.405 181.275,180.286 181.522,180.481 181.375 C 180.675 181.229,182.731 179.591,185.050 177.735 L 189.267 174.360 188.476 172.403 C 186.889 168.475,187.178 164.443,189.292 161.024 L 190.234 159.500 184.796 154.113 L 179.358 148.726 178.109 149.363 C 173.383 151.772,167.553 147.982,167.553 142.500 C 167.553 137.085,172.963 133.444,177.927 135.518 M50.000 202.500 L 50.000 265.000 47.500 265.000 L 45.000 265.000 45.000 202.500 L 45.000 140.000 47.500 140.000 L 50.000 140.000 50.000 202.500 M355.000 202.500 L 355.000 265.000 352.500 265.000 L 350.000 265.000 350.000 202.500 L 350.000 140.000 352.500 140.000 L 355.000 140.000 355.000 202.500 M145.324 222.024 C 155.850 226.799,154.707 245.566,143.752 247.825 L 142.003 248.185 143.006 249.402 C 144.578 251.309,145.880 251.574,148.312 250.483 C 151.211 249.182,152.806 250.438,150.250 252.009 C 146.711 254.184,143.986 253.651,140.712 250.146 C 139.438 248.782,138.226 247.667,138.018 247.667 C 136.322 247.667,132.902 244.607,131.580 241.908 C 126.118 230.753,135.296 217.475,145.324 222.024 M138.487 223.688 C 130.764 225.934,130.284 241.864,137.833 245.367 C 144.112 248.280,150.130 243.123,150.127 234.833 C 150.123 226.608,145.073 221.773,138.487 223.688 M164.858 230.111 C 164.952 230.356,165.066 233.393,165.113 236.861 C 165.204 243.754,165.455 244.826,167.157 245.602 C 168.639 246.277,171.033 246.085,172.933 245.137 C 175.896 243.661,176.000 243.397,176.000 237.324 L 176.000 232.071 174.630 232.379 C 173.198 232.701,172.333 232.362,172.333 231.479 C 172.333 230.865,172.622 230.736,175.209 230.193 C 178.485 229.507,178.333 229.125,178.333 238.044 L 178.333 245.673 180.250 245.586 C 182.090 245.503,182.167 245.533,182.167 246.324 C 182.167 248.084,176.716 248.183,176.217 246.433 L 175.913 245.366 174.790 246.222 C 171.434 248.782,166.038 248.548,164.072 245.758 C 163.007 244.246,162.877 243.418,162.824 237.833 L 162.774 232.500 161.342 232.500 C 158.225 232.500,158.683 230.932,162.012 230.204 C 164.810 229.593,164.661 229.598,164.858 230.111 M204.167 230.455 C 207.747 232.136,209.162 234.508,209.162 238.833 C 209.162 245.729,203.056 249.872,196.370 247.513 C 188.757 244.827,188.639 232.960,196.197 230.191 C 198.342 229.405,202.202 229.533,204.167 230.455 M228.594 230.187 C 229.003 230.473,229.565 231.147,229.843 231.685 L 230.348 232.663 231.784 231.165 C 233.701 229.164,235.751 229.017,237.489 230.756 C 238.963 232.229,239.333 234.188,239.333 240.497 L 239.333 245.628 240.750 245.731 C 242.012 245.822,242.167 245.925,242.167 246.667 C 242.167 247.481,242.111 247.500,239.667 247.500 L 237.167 247.500 237.000 240.485 C 236.813 232.622,236.565 231.667,234.704 231.667 C 231.875 231.667,231.000 233.710,231.000 240.317 L 231.000 245.667 232.293 245.667 C 233.689 245.667,234.533 246.332,234.209 247.177 C 234.048 247.596,233.517 247.676,231.422 247.597 L 228.833 247.500 228.667 240.485 C 228.480 232.622,228.231 231.667,226.371 231.667 C 223.572 231.667,222.667 233.823,222.667 240.489 L 222.667 245.667 223.583 245.672 C 224.812 245.679,225.425 246.113,225.278 246.873 C 225.168 247.445,224.808 247.500,221.162 247.500 L 217.167 247.500 217.167 246.667 C 217.167 245.909,217.310 245.824,218.750 245.732 L 220.333 245.630 220.333 238.851 L 220.333 232.071 218.944 232.383 C 217.261 232.761,216.667 232.575,216.667 231.669 C 216.667 230.795,217.914 230.304,220.333 230.226 L 222.167 230.167 222.369 231.500 C 222.481 232.233,222.593 232.651,222.619 232.428 C 222.853 230.424,226.813 228.939,228.594 230.187 M262.359 230.047 C 265.229 230.907,267.312 233.710,267.326 236.731 C 267.338 239.257,267.091 239.333,258.926 239.333 L 252.000 239.333 252.000 240.145 C 252.000 245.501,259.661 247.866,265.008 244.161 C 266.489 243.135,267.333 243.252,267.333 244.485 C 267.333 247.044,260.134 248.880,255.706 247.450 C 243.990 243.666,250.549 226.509,262.359 230.047 M196.657 232.417 C 191.964 234.788,191.964 242.879,196.657 245.250 C 203.107 248.509,209.215 241.652,205.776 235.012 C 204.112 231.798,200.126 230.664,196.657 232.417 M255.482 232.494 C 253.786 233.345,252.547 234.806,252.152 236.417 L 251.928 237.333 258.657 237.333 L 265.386 237.333 265.152 236.250 C 264.216 231.910,259.948 230.253,255.482 232.494 " stroke="none" fill="#44a49c" fill-rule="evenodd"></path><path id="path3" d="M344.833 202.500 C 344.833 237.023,344.946 265.200,345.083 265.115 C 345.221 265.030,345.333 236.853,345.333 202.500 C 345.333 168.147,345.221 139.970,345.083 139.885 C 344.946 139.800,344.833 167.977,344.833 202.500 M178.143 238.000 C 178.143 242.308,178.191 244.071,178.249 241.917 C 178.307 239.762,178.307 236.237,178.249 234.083 C 178.191 231.929,178.143 233.692,178.143 238.000 M239.063 240.064 C 239.028 243.124,239.112 245.697,239.250 245.783 C 239.387 245.868,239.461 244.190,239.413 242.052 C 239.258 235.119,239.127 234.379,239.063 240.064 M222.486 240.639 C 222.498 244.917,222.584 245.801,223.000 245.915 C 223.360 246.013,223.386 245.970,223.093 245.761 C 222.812 245.562,222.652 243.927,222.578 240.486 L 222.472 235.500 222.486 240.639 M230.819 240.639 C 230.831 244.917,230.917 245.801,231.333 245.915 C 231.694 246.013,231.720 245.970,231.426 245.761 C 231.145 245.562,230.986 243.927,230.912 240.486 L 230.805 235.500 230.819 240.639 M206.751 238.833 C 206.754 239.567,206.823 239.827,206.902 239.413 C 206.982 238.998,206.979 238.398,206.896 238.079 C 206.812 237.761,206.747 238.100,206.751 238.833 M145.750 253.230 C 146.071 253.314,146.596 253.314,146.917 253.230 C 147.237 253.146,146.975 253.077,146.333 253.077 C 145.692 253.077,145.429 253.146,145.750 253.230 " stroke="none" fill="#7cbcac" fill-rule="evenodd"></path><path id="path4" d="" stroke="none" fill="#58c8bc" fill-rule="evenodd"></path></g></svg>